%
M48
M72
T01C0.0276
T02C0.0320
T03C0.0354
T04C0.0433
T05C0.0984
%
T01
X11515Y5790
X11515Y6790
T02
X13015Y6790
X13015Y5790
X15015Y5790
X18015Y5790
X18015Y4790
X19015Y4790
X19015Y3790
X18015Y3790
X15015Y3790
X13515Y3790
X13515Y2790
X15015Y2790
X18015Y2790
X19015Y2790
X23015Y2790
X23015Y3790
X23015Y4790
X15015Y4790
X9515Y3790
X9515Y2790
X9515Y1790
X13515Y1790
T03
X10015Y4890
X9015Y4890
X9015Y7690
X10015Y7690
T04
X7015Y5176
X7015Y3404
T05
X7015Y2046
X7015Y6534
M30
