G75*
%MOIN*%
%OFA0B0*%
%FSLAX24Y24*%
%IPPOS*%
%LPD*%
%AMOC8*
5,1,8,0,0,1.08239X$1,22.5*
%
%ADD10C,0.0000*%
%ADD11R,0.0787X0.0433*%
%ADD12C,0.0594*%
%ADD13OC8,0.0660*%
%ADD14OC8,0.0560*%
%ADD15C,0.0560*%
%ADD16R,0.0650X0.0650*%
%ADD17C,0.0650*%
%ADD18C,0.1384*%
%ADD19R,0.0787X0.0472*%
%ADD20OC8,0.0680*%
%ADD21C,0.0320*%
D10*
X006015Y000290D02*
X006015Y008286D01*
X026510Y008286D01*
X026510Y000290D01*
X006015Y000290D01*
X006798Y003404D02*
X006800Y003433D01*
X006806Y003461D01*
X006815Y003489D01*
X006828Y003515D01*
X006845Y003538D01*
X006864Y003560D01*
X006886Y003579D01*
X006911Y003594D01*
X006937Y003607D01*
X006965Y003615D01*
X006993Y003620D01*
X007022Y003621D01*
X007051Y003618D01*
X007079Y003611D01*
X007106Y003601D01*
X007132Y003587D01*
X007155Y003570D01*
X007176Y003550D01*
X007194Y003527D01*
X007209Y003502D01*
X007220Y003475D01*
X007228Y003447D01*
X007232Y003418D01*
X007232Y003390D01*
X007228Y003361D01*
X007220Y003333D01*
X007209Y003306D01*
X007194Y003281D01*
X007176Y003258D01*
X007155Y003238D01*
X007132Y003221D01*
X007106Y003207D01*
X007079Y003197D01*
X007051Y003190D01*
X007022Y003187D01*
X006993Y003188D01*
X006965Y003193D01*
X006937Y003201D01*
X006911Y003214D01*
X006886Y003229D01*
X006864Y003248D01*
X006845Y003270D01*
X006828Y003293D01*
X006815Y003319D01*
X006806Y003347D01*
X006800Y003375D01*
X006798Y003404D01*
X006798Y005176D02*
X006800Y005205D01*
X006806Y005233D01*
X006815Y005261D01*
X006828Y005287D01*
X006845Y005310D01*
X006864Y005332D01*
X006886Y005351D01*
X006911Y005366D01*
X006937Y005379D01*
X006965Y005387D01*
X006993Y005392D01*
X007022Y005393D01*
X007051Y005390D01*
X007079Y005383D01*
X007106Y005373D01*
X007132Y005359D01*
X007155Y005342D01*
X007176Y005322D01*
X007194Y005299D01*
X007209Y005274D01*
X007220Y005247D01*
X007228Y005219D01*
X007232Y005190D01*
X007232Y005162D01*
X007228Y005133D01*
X007220Y005105D01*
X007209Y005078D01*
X007194Y005053D01*
X007176Y005030D01*
X007155Y005010D01*
X007132Y004993D01*
X007106Y004979D01*
X007079Y004969D01*
X007051Y004962D01*
X007022Y004959D01*
X006993Y004960D01*
X006965Y004965D01*
X006937Y004973D01*
X006911Y004986D01*
X006886Y005001D01*
X006864Y005020D01*
X006845Y005042D01*
X006828Y005065D01*
X006815Y005091D01*
X006806Y005119D01*
X006800Y005147D01*
X006798Y005176D01*
D11*
X024227Y004959D03*
X025802Y004959D03*
X025802Y004290D03*
X024227Y004290D03*
X024227Y003621D03*
X025802Y003621D03*
D12*
X010015Y004890D03*
X009015Y004890D03*
X009015Y007690D03*
X010015Y007690D03*
D13*
X019015Y004790D03*
X019015Y003790D03*
X019015Y002790D03*
X023015Y002790D03*
X023015Y003790D03*
X023015Y004790D03*
X013515Y003790D03*
X013515Y002790D03*
X013515Y001790D03*
X009515Y001790D03*
X009515Y002790D03*
X009515Y003790D03*
D14*
X013015Y006790D03*
D15*
X013015Y005790D03*
D16*
X011515Y005790D03*
D17*
X011515Y006790D03*
D18*
X007015Y006534D03*
X007015Y002046D03*
D19*
X008038Y002912D03*
X008038Y003896D03*
X008038Y004684D03*
X008038Y005668D03*
D20*
X015015Y005790D03*
X018015Y005790D03*
X018015Y004790D03*
X015015Y004790D03*
X015015Y003790D03*
X018015Y003790D03*
X018015Y002790D03*
X015015Y002790D03*
D21*
X015015Y000790D01*
X026015Y000790D01*
X026015Y003621D01*
X025802Y003621D01*
X026015Y003621D02*
X026015Y004290D01*
X025802Y004290D01*
X026015Y004290D02*
X026015Y004959D01*
X025802Y004959D01*
X026015Y004959D02*
X026015Y007790D01*
X014015Y007790D01*
X013015Y006790D01*
X011515Y006790D01*
X010615Y007690D01*
X010015Y007690D01*
X009015Y007690D01*
X008038Y006214D01*
X008038Y005668D01*
X009015Y004890D02*
X009015Y004290D01*
X009515Y003790D01*
X009515Y002790D02*
X008408Y003896D01*
X008038Y003896D01*
X008038Y004684D02*
X008808Y004684D01*
X009015Y004890D01*
X010015Y004890D02*
X010015Y004790D01*
X010515Y004290D01*
X010515Y002790D01*
X009515Y002790D01*
X009515Y001790D01*
X008038Y000814D02*
X008015Y000790D01*
X011515Y000790D01*
X013015Y000790D01*
X013515Y001790D01*
X013515Y002790D02*
X014265Y003540D01*
X014265Y004040D01*
X015015Y004790D01*
X016515Y004790D02*
X018015Y004790D01*
X018015Y003790D02*
X019015Y004790D01*
X016515Y004790D02*
X016515Y006790D01*
X015015Y006790D01*
X013515Y005290D01*
X013515Y003790D01*
X015015Y003790D02*
X016515Y003790D01*
X016515Y001790D01*
X019015Y001790D01*
X019015Y002790D01*
X018015Y002790D02*
X019015Y003790D01*
X023015Y003790D02*
X023515Y004290D01*
X024227Y004290D01*
X023184Y004959D02*
X023015Y004790D01*
X023184Y004959D02*
X024227Y004959D01*
X024227Y003621D02*
X023845Y003621D01*
X023015Y002790D01*
X018015Y005790D02*
X018015Y007290D01*
X014515Y007290D01*
X013015Y005790D01*
X011515Y005790D01*
X011515Y000790D01*
X008038Y000814D02*
X008038Y002912D01*
M02*
